<mxfile host="app.diagrams.net" agent="Mozilla/5.0 (Windows NT 10.0; Win64; x64) AppleWebKit/537.36 (KHTML, like Gecko) Chrome/132.0.0.0 Safari/537.36" version="26.0.15">
  <diagram name="Page-1" id="6apX6kV-P5iHDS8OCSDT">
    <mxGraphModel dx="916" dy="389" grid="1" gridSize="10" guides="1" tooltips="1" connect="1" arrows="1" fold="1" page="1" pageScale="1" pageWidth="850" pageHeight="1100" math="0" shadow="0">
      <root>
        <mxCell id="0" />
        <mxCell id="1" parent="0" />
        <mxCell id="imCdY2mwkBaOWQNTtYY9-3" style="edgeStyle=orthogonalEdgeStyle;rounded=0;orthogonalLoop=1;jettySize=auto;html=1;" parent="1" source="imCdY2mwkBaOWQNTtYY9-1" target="imCdY2mwkBaOWQNTtYY9-2" edge="1">
          <mxGeometry relative="1" as="geometry" />
        </mxCell>
        <mxCell id="imCdY2mwkBaOWQNTtYY9-1" value="Ask a user for their age and store in a variable" style="rounded=0;whiteSpace=wrap;html=1;" parent="1" vertex="1">
          <mxGeometry x="250" y="80" width="120" height="60" as="geometry" />
        </mxCell>
        <mxCell id="imCdY2mwkBaOWQNTtYY9-16" value="" style="edgeStyle=orthogonalEdgeStyle;rounded=0;orthogonalLoop=1;jettySize=auto;html=1;" parent="1" source="imCdY2mwkBaOWQNTtYY9-2" target="imCdY2mwkBaOWQNTtYY9-15" edge="1">
          <mxGeometry relative="1" as="geometry" />
        </mxCell>
        <mxCell id="imCdY2mwkBaOWQNTtYY9-18" value="No" style="edgeLabel;html=1;align=center;verticalAlign=middle;resizable=0;points=[];" parent="imCdY2mwkBaOWQNTtYY9-16" vertex="1" connectable="0">
          <mxGeometry x="-0.59" y="-2" relative="1" as="geometry">
            <mxPoint as="offset" />
          </mxGeometry>
        </mxCell>
        <mxCell id="9q6QZdFcyVDhlJ8nem9P-2" style="edgeStyle=orthogonalEdgeStyle;rounded=0;orthogonalLoop=1;jettySize=auto;html=1;exitX=1;exitY=0.5;exitDx=0;exitDy=0;entryX=0;entryY=0.5;entryDx=0;entryDy=0;" edge="1" parent="1" source="imCdY2mwkBaOWQNTtYY9-2" target="9q6QZdFcyVDhlJ8nem9P-1">
          <mxGeometry relative="1" as="geometry" />
        </mxCell>
        <mxCell id="9q6QZdFcyVDhlJ8nem9P-3" value="Yes" style="edgeLabel;html=1;align=center;verticalAlign=middle;resizable=0;points=[];" vertex="1" connectable="0" parent="9q6QZdFcyVDhlJ8nem9P-2">
          <mxGeometry x="-0.1367" y="4" relative="1" as="geometry">
            <mxPoint as="offset" />
          </mxGeometry>
        </mxCell>
        <mxCell id="imCdY2mwkBaOWQNTtYY9-2" value="Is age&lt;br&gt;greater than zero" style="rhombus;whiteSpace=wrap;html=1;" parent="1" vertex="1">
          <mxGeometry x="270" y="330" width="80" height="80" as="geometry" />
        </mxCell>
        <mxCell id="imCdY2mwkBaOWQNTtYY9-10" value="Print age" style="rounded=0;whiteSpace=wrap;html=1;" parent="1" vertex="1">
          <mxGeometry x="500" y="80" width="120" height="60" as="geometry" />
        </mxCell>
        <mxCell id="imCdY2mwkBaOWQNTtYY9-13" value="" style="endArrow=classic;html=1;rounded=0;exitX=0;exitY=0.5;exitDx=0;exitDy=0;" parent="1" source="imCdY2mwkBaOWQNTtYY9-10" edge="1">
          <mxGeometry width="50" height="50" relative="1" as="geometry">
            <mxPoint x="450" y="110" as="sourcePoint" />
            <mxPoint x="370" y="110" as="targetPoint" />
            <Array as="points">
              <mxPoint x="440" y="110" />
            </Array>
          </mxGeometry>
        </mxCell>
        <mxCell id="imCdY2mwkBaOWQNTtYY9-15" value="Print &quot;done&quot;" style="whiteSpace=wrap;html=1;" parent="1" vertex="1">
          <mxGeometry x="90" y="340" width="120" height="60" as="geometry" />
        </mxCell>
        <mxCell id="9q6QZdFcyVDhlJ8nem9P-5" style="edgeStyle=orthogonalEdgeStyle;rounded=0;orthogonalLoop=1;jettySize=auto;html=1;entryX=0.5;entryY=1;entryDx=0;entryDy=0;" edge="1" parent="1" source="9q6QZdFcyVDhlJ8nem9P-1" target="9q6QZdFcyVDhlJ8nem9P-4">
          <mxGeometry relative="1" as="geometry" />
        </mxCell>
        <mxCell id="9q6QZdFcyVDhlJ8nem9P-6" value="Yes" style="edgeLabel;html=1;align=center;verticalAlign=middle;resizable=0;points=[];" vertex="1" connectable="0" parent="9q6QZdFcyVDhlJ8nem9P-5">
          <mxGeometry x="0.1126" y="3" relative="1" as="geometry">
            <mxPoint as="offset" />
          </mxGeometry>
        </mxCell>
        <mxCell id="9q6QZdFcyVDhlJ8nem9P-9" value="" style="edgeStyle=orthogonalEdgeStyle;rounded=0;orthogonalLoop=1;jettySize=auto;html=1;" edge="1" parent="1" source="9q6QZdFcyVDhlJ8nem9P-1" target="9q6QZdFcyVDhlJ8nem9P-8">
          <mxGeometry relative="1" as="geometry" />
        </mxCell>
        <mxCell id="9q6QZdFcyVDhlJ8nem9P-10" value="No" style="edgeLabel;html=1;align=center;verticalAlign=middle;resizable=0;points=[];" vertex="1" connectable="0" parent="9q6QZdFcyVDhlJ8nem9P-9">
          <mxGeometry x="0.4268" y="2" relative="1" as="geometry">
            <mxPoint as="offset" />
          </mxGeometry>
        </mxCell>
        <mxCell id="9q6QZdFcyVDhlJ8nem9P-1" value="Is&lt;br&gt;&amp;nbsp;age &amp;gt;= 18?" style="rhombus;whiteSpace=wrap;html=1;" vertex="1" parent="1">
          <mxGeometry x="520" y="330" width="80" height="80" as="geometry" />
        </mxCell>
        <mxCell id="9q6QZdFcyVDhlJ8nem9P-11" style="edgeStyle=orthogonalEdgeStyle;rounded=0;orthogonalLoop=1;jettySize=auto;html=1;" edge="1" parent="1" source="9q6QZdFcyVDhlJ8nem9P-4" target="imCdY2mwkBaOWQNTtYY9-10">
          <mxGeometry relative="1" as="geometry" />
        </mxCell>
        <mxCell id="9q6QZdFcyVDhlJ8nem9P-4" value="Print &quot;old&quot;" style="rounded=0;whiteSpace=wrap;html=1;" vertex="1" parent="1">
          <mxGeometry x="500" y="210" width="120" height="60" as="geometry" />
        </mxCell>
        <mxCell id="9q6QZdFcyVDhlJ8nem9P-12" style="edgeStyle=orthogonalEdgeStyle;rounded=0;orthogonalLoop=1;jettySize=auto;html=1;entryX=1;entryY=0.25;entryDx=0;entryDy=0;" edge="1" parent="1" source="9q6QZdFcyVDhlJ8nem9P-8" target="imCdY2mwkBaOWQNTtYY9-10">
          <mxGeometry relative="1" as="geometry">
            <Array as="points">
              <mxPoint x="720" y="95" />
            </Array>
          </mxGeometry>
        </mxCell>
        <mxCell id="9q6QZdFcyVDhlJ8nem9P-8" value="Print &quot;young&quot;" style="whiteSpace=wrap;html=1;" vertex="1" parent="1">
          <mxGeometry x="660" y="210" width="120" height="60" as="geometry" />
        </mxCell>
      </root>
    </mxGraphModel>
  </diagram>
</mxfile>
